<svg xmlns="http://www.w3.org/2000/svg" viewBox="0 0 960 159.32"><defs><style>.cls-1{fill:#fff}</style></defs><g id="Camada_2" data-name="Camada 2"><g id="Camada_1-2" data-name="Camada 1"><path class="cls-1" d="M851.06 31.92h-12.14a8.6 8.6 0 00-7.77 6.13l-.75 2.79c-4.25-6.8-11.74-10.17-22.47-10.17A52.39 52.39 0 00785 36a56.47 56.47 0 00-19.19 15.2A58.38 58.38 0 00755 71.31c-.3.89-.57 1.78-.81 2.7-2.32 8.65-2.55 16.28-.66 22.84a26 26 0 0011 15.2q8.21 5.3 20.1 5.31 17.2 0 29.24-11c-.52 2.15-1.05 4.26-1.66 6.41a47.5 47.5 0 01-4.61 11.59 38.73 38.73 0 01-2.31 3.37c-.79 1-1.6 2.08-2.47 3a11.55 11.55 0 01-1 1 3.49 3.49 0 01-.7.68 6.27 6.27 0 01-.88.8 14.3 14.3 0 01-1.89 1.44 8.72 8.72 0 01-1 .64c-4.77 2.91-10.83 4.35-18.24 4.35H124.59a2.14 2.14 0 00-1.85 1.31 37.76 37.76 0 01-12.94 15.62c-1.31.92-1.1 2.66.3 2.66h665.71Q799 159.32 814 148q14.26-10.66 20.55-31.94c.28-.83.5-1.66.72-2.48l20.25-75.57c.93-3.33-1.06-6.09-4.46-6.09zM817 79.38A30.49 30.49 0 01808.26 91a26.43 26.43 0 01-17 6.35c-6.25 0-10.87-2.12-13.81-6.35-2.78-4-3.39-9.41-1.77-16.06.06-.31.14-.61.22-.92a32 32 0 0110.65-17 26.72 26.72 0 0117.21-6.35c6.16 0 10.68 2.12 13.63 6.35s3.45 9.9 1.55 17a39 39 0 01-1.94 5.36zM18.55 120.18a24.32 24.32 0 00-16.39 12.58C-1 139-.53 144.91 2.35 148.84a12.8 12.8 0 0010.68 5c9.41 0 19.06-7.63 21.57-17 2.82-10.54-4.52-18.84-16.05-16.66zM98.73 120.24A24.3 24.3 0 0082.5 132.9c-3 6.19-2.61 12 .29 15.94 2.23 3.09 6 5 10.67 5 8.4 0 17-6.1 20.49-14.1a17.81 17.81 0 001-2.91c2.89-10.61-4.58-18.94-16.22-16.59zM110.25 109.69zM229.11 38.06L209.84 110a8.58 8.58 0 01-7.78 6.13H191c-3.39 0-5.4-2.74-4.49-6.13l1-3.57q-12 11-29.23 11-11.9 0-20.09-5.32a26 26 0 01-11-15.18q-2.9-9.93.58-22.93a59.75 59.75 0 0111.6-22.85A56.27 56.27 0 01158.54 36a52.34 52.34 0 0122.94-5.32q16.13 0 22.47 10.18l.75-2.79a8.57 8.57 0 017.77-6.13h12.15c3.38-.01 5.38 2.73 4.49 6.12zM181.81 91a31.82 31.82 0 0010.66-17q2.85-10.63-1.56-17t-13.64-6.3a26.67 26.67 0 00-17.19 6.3 31.82 31.82 0 00-10.65 17q-2.85 10.67 1.57 17t13.8 6.34A26.42 26.42 0 00181.81 91z"/><path class="cls-1" d="M436.78 38.06L417.5 110a8.55 8.55 0 01-7.77 6.13h-11.06c-3.38 0-5.39-2.74-4.48-6.13l.95-3.57q-12 11-29.22 11-11.9 0-20.1-5.32a26 26 0 01-11-15.18Q332 87 335.44 74A59.88 59.88 0 01347 51.17 56.46 56.46 0 01366.2 36a52.42 52.42 0 0122.95-5.32q16.11 0 22.47 10.18l.75-2.79a8.55 8.55 0 017.77-6.13h12.15c3.39-.01 5.4 2.73 4.49 6.12zM389.48 91a31.75 31.75 0 0010.65-17q2.85-10.63-1.55-17t-13.64-6.3a26.67 26.67 0 00-17.19 6.3 31.82 31.82 0 00-10.65 17q-2.85 10.65 1.55 17t13.79 6.34A26.42 26.42 0 00389.48 91zM644.91 38.06L625.64 110a8.57 8.57 0 01-7.77 6.13h-11.06c-3.39 0-5.39-2.74-4.49-6.13l1-3.57q-12 11-29.23 11-11.89 0-20.09-5.32a25.92 25.92 0 01-11-15.18q-2.92-9.93.57-22.93a59.89 59.89 0 0111.6-22.85A56.27 56.27 0 01574.34 36a52.37 52.37 0 0122.94-5.32q16.13 0 22.47 10.18l.75-2.79a8.57 8.57 0 017.77-6.13h12.16c3.38-.01 5.39 2.73 4.48 6.12zM597.62 91a31.75 31.75 0 0010.65-17q2.85-10.63-1.56-17t-13.63-6.3a26.71 26.71 0 00-17.2 6.3 31.82 31.82 0 00-10.65 17q-2.85 10.65 1.55 17t13.8 6.34A26.46 26.46 0 00597.62 91zM959.78 38.06L940.51 110a8.58 8.58 0 01-7.78 6.13h-11.05c-3.39 0-5.4-2.74-4.49-6.13l1-3.57q-12 11-29.23 11-11.89 0-20.09-5.32a26 26 0 01-11-15.18Q855 87 858.44 74A59.75 59.75 0 01870 51.17 56.27 56.27 0 01889.21 36a52.34 52.34 0 0122.94-5.32q16.13 0 22.47 10.18l.75-2.79a8.57 8.57 0 017.77-6.13h12.15c3.39-.01 5.4 2.73 4.49 6.12zM912.48 91a31.82 31.82 0 0010.66-17q2.85-10.63-1.56-17t-13.64-6.3a26.67 26.67 0 00-17.19 6.3 31.82 31.82 0 00-10.65 17q-2.85 10.65 1.55 17t13.8 6.34A26.42 26.42 0 00912.48 91zM332.55 38.06L313.28 110a8.57 8.57 0 01-7.77 6.13H294.6c-3.38 0-5.39-2.74-4.48-6.13l1-3.89a46.62 46.62 0 01-13.83 8.38 42.23 42.23 0 01-15.29 2.88q-16.59 0-23.73-9.54t-2.11-28.33l11.1-41.44a8.58 8.58 0 017.74-6.13h12.15c3.38 0 5.39 2.74 4.49 6.13l-10.1 37.84q-5.46 20.34 11.6 20.35a23.73 23.73 0 0015.62-5.72q6.84-5.7 9.87-17l9.51-35.49a8.57 8.57 0 017.77-6.13h12.16c3.38.02 5.39 2.76 4.48 6.15zM527.06 36.07a26.44 26.44 0 0111 15.18Q541 61 537.47 74a59.23 59.23 0 01-11.58 22.77A57.3 57.3 0 01506.72 112a51.45 51.45 0 01-22.81 5.4q-17.37 0-23.51-11l-1 3.57a8.55 8.55 0 01-7.77 6.13h-11.02c-3.38 0-5.39-2.74-4.48-6.13L464 6.13A8.55 8.55 0 01471.73 0h12.15c3.39 0 5.4 2.74 4.49 6.13l-9.3 34.72a41.93 41.93 0 0128.07-10.18q11.75 0 19.92 5.4zM502.17 91a31.93 31.93 0 0010.57-17q2.85-10.63-1.47-17t-13.72-6.3a26.36 26.36 0 00-17.11 6.3 32 32 0 00-10.58 17q-2.86 10.67 1.48 17t13.72 6.34A26.31 26.31 0 00502.17 91zM739.45 40.06q7.11 9.39 2.16 27.86L730.33 110a8.55 8.55 0 01-7.77 6.13h-12.15c-3.39 0-5.4-2.74-4.49-6.13l10.27-38.31q2.68-10-.38-15t-11.35-4.89a25 25 0 00-16.25 5.71q-7 5.72-10 17L668.68 110a8.58 8.58 0 01-7.78 6.13h-12.15c-3.39 0-5.4-2.74-4.49-6.13l19.28-71.93a8.55 8.55 0 017.77-6.13h11.06c3.38 0 5.39 2.74 4.48 6.13l-1 3.73a46.09 46.09 0 0114.25-8.22 48.18 48.18 0 0116.58-2.9q15.66-.01 22.77 9.38zM110.32 110.24a1 1 0 01-.5.64.71.71 0 01-.52.12h-.24a28.86 28.86 0 00-4-.31 33.28 33.28 0 00-18.59 6.23c-.83.58-1.8.52-2.17-.16L61.66 75.3 42.84 90.63l-5.61 20.93a2 2 0 01-2.49 1.44 21.82 21.82 0 00-10.14-2.33 30.25 30.25 0 00-10.8 2.09 1.19 1.19 0 01-1.69-1.44L32.82 34H13.75c-3.37 0-5.39-2.76-4.48-6.13l3.46-12.94a8.61 8.61 0 017.78-6.13h38.13c3.4 0 5.39 2.76 4.49 6.13l-12.07 45L111 10.68a8.07 8.07 0 015-1.9h18.49c2.69 0 3.22 3.19.85 5.15L83 57.61l27.28 52.08a.73.73 0 01.04.55z"/></g></g></svg>