<svg xmlns="http://www.w3.org/2000/svg" viewBox="0 0 480 79.66"><defs><style>.cls-1{fill:#f4ab0b;}.cls-2{fill:#f2b111;}.cls-3{fill:#0c0905;}</style></defs><g id="Camada_2" data-name="Camada 2"><g id="Camada_1-2" data-name="Camada 1"><path class="cls-1" d="M425.53,16h-6.07A4.31,4.31,0,0,0,415.57,19l-.37,1.39Q412,15.32,404,15.33A26.12,26.12,0,0,0,392.5,18a28.07,28.07,0,0,0-9.6,7.6,29,29,0,0,0-5.38,10.07c-.15.44-.28.89-.41,1.35a21.37,21.37,0,0,0-.33,11.41A13.06,13.06,0,0,0,382.3,56a18.17,18.17,0,0,0,10.05,2.65A21,21,0,0,0,407,53.21c-.26,1.07-.53,2.13-.83,3.2a23.62,23.62,0,0,1-2.3,5.79,17.45,17.45,0,0,1-1.16,1.69c-.4.5-.8,1-1.23,1.52-.16.17-.31.33-.49.5a2.83,2.83,0,0,1-.35.34,2.92,2.92,0,0,1-.45.4,7.11,7.11,0,0,1-.94.72,4,4,0,0,1-.52.32,17.18,17.18,0,0,1-9.12,2.18H62.29a1.07,1.07,0,0,0-.92.65,18.85,18.85,0,0,1-6.47,7.81c-.65.46-.55,1.33.15,1.33H387.91q11.56,0,19.11-5.64,7.13-5.34,10.27-16c.14-.41.25-.83.36-1.24L427.77,19A2.27,2.27,0,0,0,425.53,16Zm-17,23.73a15.25,15.25,0,0,1-4.39,5.81,13.23,13.23,0,0,1-8.51,3.17c-3.13,0-5.44-1.06-6.91-3.17s-1.7-4.71-.88-8a3.41,3.41,0,0,1,.1-.46,16,16,0,0,1,5.33-8.5,13.39,13.39,0,0,1,8.61-3.17c3.08,0,5.34,1.06,6.81,3.17s1.72,5,.77,8.5A19.64,19.64,0,0,1,408.52,39.69Z"/><path class="cls-1" d="M9.28,60.09a12.15,12.15,0,0,0-8.2,6.29c-1.56,3.12-1.34,6.07.1,8a6.37,6.37,0,0,0,5.33,2.5c4.71,0,9.53-3.82,10.79-8.51C18.71,63.15,15,59,9.28,60.09Z"/><path class="cls-1" d="M49.36,60.12a12.17,12.17,0,0,0-8.11,6.33c-1.52,3.1-1.3,6,.14,8a6.38,6.38,0,0,0,5.34,2.5c4.2,0,8.5-3,10.24-7a9.15,9.15,0,0,0,.53-1.46C58.92,63.11,55.18,59,49.36,60.12Z"/><path class="cls-2" d="M55.12,54.85h0Z"/><path class="cls-3" d="M114.56,19l-9.64,36A4.29,4.29,0,0,1,101,58.06H95.5A2.27,2.27,0,0,1,93.26,55l.48-1.78a20.94,20.94,0,0,1-14.62,5.48,18.08,18.08,0,0,1-10-2.66,13.08,13.08,0,0,1-5.52-7.59A21.34,21.34,0,0,1,63.88,37a29.92,29.92,0,0,1,5.8-11.42A28,28,0,0,1,79.27,18a26,26,0,0,1,11.47-2.66q8.06,0,11.24,5.08l.37-1.39A4.29,4.29,0,0,1,106.24,16h6.07A2.28,2.28,0,0,1,114.56,19ZM90.91,45.5A15.87,15.87,0,0,0,96.23,37q1.42-5.32-.77-8.49c-1.47-2.11-3.75-3.17-6.82-3.17A13.35,13.35,0,0,0,80,28.52,15.88,15.88,0,0,0,74.71,37q-1.42,5.33.78,8.49t6.9,3.17A13.24,13.24,0,0,0,90.91,45.5Z"/><path class="cls-3" d="M218.39,19l-9.64,36a4.27,4.27,0,0,1-3.88,3.07h-5.53A2.28,2.28,0,0,1,197.09,55l.48-1.78A20.9,20.9,0,0,1,183,58.69,18.12,18.12,0,0,1,172.91,56a13.08,13.08,0,0,1-5.52-7.59A21.35,21.35,0,0,1,167.72,37a29.78,29.78,0,0,1,5.8-11.42A28,28,0,0,1,183.1,18a26.08,26.08,0,0,1,11.47-2.66q8.07,0,11.24,5.08l.37-1.39A4.31,4.31,0,0,1,210.07,16h6.08A2.28,2.28,0,0,1,218.39,19ZM194.74,45.5A15.88,15.88,0,0,0,200.07,37q1.43-5.32-.78-8.49t-6.82-3.17a13.37,13.37,0,0,0-8.6,3.17A15.87,15.87,0,0,0,178.55,37q-1.43,5.33.77,8.49t6.9,3.17A13.24,13.24,0,0,0,194.74,45.5Z"/><path class="cls-3" d="M322.46,19l-9.64,36a4.28,4.28,0,0,1-3.89,3.07h-5.52A2.28,2.28,0,0,1,301.16,55l.48-1.78A20.91,20.91,0,0,1,287,58.69,18.09,18.09,0,0,1,277,56a13.08,13.08,0,0,1-5.52-7.59A21.35,21.35,0,0,1,271.79,37a29.91,29.91,0,0,1,5.79-11.42A28.13,28.13,0,0,1,287.17,18a26,26,0,0,1,11.47-2.66q8.06,0,11.24,5.08l.37-1.39A4.29,4.29,0,0,1,314.14,16h6.07A2.28,2.28,0,0,1,322.46,19ZM298.81,45.5A15.87,15.87,0,0,0,304.13,37q1.42-5.32-.77-8.49t-6.82-3.17a13.35,13.35,0,0,0-8.6,3.17A15.87,15.87,0,0,0,282.62,37q-1.42,5.33.77,8.49t6.9,3.17A13.24,13.24,0,0,0,298.81,45.5Z"/><path class="cls-3" d="M479.89,19l-9.64,36a4.27,4.27,0,0,1-3.88,3.07h-5.53A2.28,2.28,0,0,1,458.59,55l.48-1.78a20.9,20.9,0,0,1-14.61,5.48,18.12,18.12,0,0,1-10-2.66,13,13,0,0,1-5.51-7.59A21.24,21.24,0,0,1,429.22,37,29.78,29.78,0,0,1,435,25.59,28,28,0,0,1,444.6,18a26.09,26.09,0,0,1,11.48-2.66q8.06,0,11.23,5.08l.37-1.39A4.31,4.31,0,0,1,471.57,16h6.08A2.28,2.28,0,0,1,479.89,19ZM456.24,45.5A15.88,15.88,0,0,0,461.57,37q1.43-5.32-.78-8.49T454,25.35a13.32,13.32,0,0,0-8.59,3.17A15.88,15.88,0,0,0,440.05,37q-1.43,5.33.78,8.49t6.89,3.17A13.24,13.24,0,0,0,456.24,45.5Z"/><path class="cls-3" d="M166.28,19l-9.64,36a4.28,4.28,0,0,1-3.89,3.07H147.3A2.27,2.27,0,0,1,145.06,55l.52-1.94a23.39,23.39,0,0,1-6.91,4.19A21.29,21.29,0,0,1,131,58.69q-8.3,0-11.86-4.78t-1.06-14.16L123.63,19A4.29,4.29,0,0,1,127.52,16h6.07A2.28,2.28,0,0,1,135.84,19L130.77,38q-2.73,10.17,5.8,10.17a11.89,11.89,0,0,0,7.81-2.85,16.12,16.12,0,0,0,4.93-8.49L154.07,19A4.29,4.29,0,0,1,158,16H164A2.28,2.28,0,0,1,166.28,19Z"/><path class="cls-3" d="M263.53,18a13.25,13.25,0,0,1,5.52,7.59A21,21,0,0,1,268.74,37,29.92,29.92,0,0,1,263,48.4,28.67,28.67,0,0,1,253.36,56a25.72,25.72,0,0,1-11.4,2.7q-8.69,0-11.76-5.48L229.72,55a4.27,4.27,0,0,1-3.88,3.07h-5.53A2.28,2.28,0,0,1,218.06,55L232,3.07A4.27,4.27,0,0,1,235.86,0h6.08a2.27,2.27,0,0,1,2.24,3.07l-4.65,17.35a21,21,0,0,1,14-5.08A17.69,17.69,0,0,1,263.53,18ZM251.08,45.5A15.94,15.94,0,0,0,256.37,37q1.42-5.32-.74-8.49t-6.85-3.17a13.18,13.18,0,0,0-8.56,3.17A15.94,15.94,0,0,0,234.93,37q-1.43,5.33.74,8.49t6.86,3.17A13.16,13.16,0,0,0,251.08,45.5Z"/><path class="cls-3" d="M369.72,20q3.55,4.7,1.08,13.93l-5.63,21a4.3,4.3,0,0,1-3.89,3.07H355.2A2.27,2.27,0,0,1,353,55l5.13-19.15c.9-3.34.83-5.83-.18-7.47S355,25.9,352.23,25.9a12.43,12.43,0,0,0-8.12,2.86,15.82,15.82,0,0,0-5,8.49L334.34,55a4.3,4.3,0,0,1-3.89,3.07h-6.08A2.27,2.27,0,0,1,322.13,55l9.64-36A4.29,4.29,0,0,1,335.65,16h5.53A2.28,2.28,0,0,1,343.43,19l-.5,1.86a23.22,23.22,0,0,1,7.12-4.11,24.26,24.26,0,0,1,8.29-1.44Q366.17,15.34,369.72,20Z"/><path class="cls-3" d="M55.16,55.12a.53.53,0,0,1-.25.32.38.38,0,0,1-.26.06l-.12,0a14.5,14.5,0,0,0-2-.15,16.71,16.71,0,0,0-9.3,3.11c-.41.29-.89.26-1.08-.07L30.83,37.65l-9.41,7.66L18.61,55.78a1,1,0,0,1-1.24.71,10.9,10.9,0,0,0-5.07-1.17,15.23,15.23,0,0,0-5.4,1,.6.6,0,0,1-.85-.72L16.41,17H6.88a2.28,2.28,0,0,1-2.25-3.07L6.37,7.46a4.3,4.3,0,0,1,3.88-3.07H29.32a2.27,2.27,0,0,1,2.24,3.07L25.53,30l30-24.63a4,4,0,0,1,2.48-1h9.24c1.35,0,1.61,1.59.43,2.58L41.49,28.81l13.64,26A.34.34,0,0,1,55.16,55.12Z"/></g></g></svg>