<svg xmlns="http://www.w3.org/2000/svg" viewBox="0 0 480 79.66"><defs><style>.cls-1{fill:#f4ab0b}.cls-3{fill:#0c0905}</style></defs><g id="Camada_2" data-name="Camada 2"><g id="Camada_1-2" data-name="Camada 1"><path class="cls-1" d="M425.53 16h-6.07a4.31 4.31 0 00-3.89 3l-.37 1.39q-3.2-5.07-11.2-5.06A26.12 26.12 0 00392.5 18a28.07 28.07 0 00-9.6 7.6 29 29 0 00-5.38 10.07c-.15.44-.28.89-.41 1.35a21.37 21.37 0 00-.33 11.41A13.06 13.06 0 00382.3 56a18.17 18.17 0 0010.05 2.65A21 21 0 00407 53.21c-.26 1.07-.53 2.13-.83 3.2a23.62 23.62 0 01-2.3 5.79 17.45 17.45 0 01-1.16 1.69c-.4.5-.8 1-1.23 1.52-.16.17-.31.33-.49.5a2.83 2.83 0 01-.35.34 2.92 2.92 0 01-.45.4 7.11 7.11 0 01-.94.72 4 4 0 01-.52.32 17.18 17.18 0 01-9.12 2.18H62.29a1.07 1.07 0 00-.92.65 18.85 18.85 0 01-6.47 7.81c-.65.46-.55 1.33.15 1.33h332.86q11.56 0 19.11-5.64 7.13-5.34 10.27-16c.14-.41.25-.83.36-1.24L427.77 19a2.27 2.27 0 00-2.24-3zm-17 23.73a15.25 15.25 0 01-4.39 5.81 13.23 13.23 0 01-8.51 3.17c-3.13 0-5.44-1.06-6.91-3.17s-1.7-4.71-.88-8a3.41 3.41 0 01.1-.46 16 16 0 015.33-8.5 13.39 13.39 0 018.61-3.17c3.08 0 5.34 1.06 6.81 3.17s1.72 5 .77 8.5a19.64 19.64 0 01-.94 2.61zM9.28 60.09a12.15 12.15 0 00-8.2 6.29c-1.56 3.12-1.34 6.07.1 8a6.37 6.37 0 005.33 2.5c4.71 0 9.53-3.82 10.79-8.51 1.41-5.22-2.3-9.37-8.02-8.28zM49.36 60.12a12.17 12.17 0 00-8.11 6.33c-1.52 3.1-1.3 6 .14 8a6.38 6.38 0 005.34 2.5c4.2 0 8.5-3 10.24-7a9.15 9.15 0 00.53-1.46c1.42-5.38-2.32-9.49-8.14-8.37z"/><path d="M55.12 54.85z" fill="#f2b111"/><path class="cls-3" d="M114.56 19l-9.64 36a4.29 4.29 0 01-3.92 3.06h-5.5A2.27 2.27 0 0193.26 55l.48-1.78a20.94 20.94 0 01-14.62 5.48 18.08 18.08 0 01-10-2.66 13.08 13.08 0 01-5.52-7.59A21.34 21.34 0 0163.88 37a29.92 29.92 0 015.8-11.42A28 28 0 0179.27 18a26 26 0 0111.47-2.66q8.06 0 11.24 5.08l.37-1.39a4.29 4.29 0 013.89-3.03h6.07a2.28 2.28 0 012.25 3zM90.91 45.5a15.87 15.87 0 005.32-8.5q1.42-5.32-.77-8.49c-1.47-2.11-3.75-3.17-6.82-3.17A13.35 13.35 0 0080 28.52 15.88 15.88 0 0074.71 37q-1.42 5.33.78 8.49t6.9 3.17a13.24 13.24 0 008.52-3.16zM218.39 19l-9.64 36a4.27 4.27 0 01-3.88 3.07h-5.53a2.28 2.28 0 01-2.25-3.07l.48-1.78A20.9 20.9 0 01183 58.69 18.12 18.12 0 01172.91 56a13.08 13.08 0 01-5.52-7.59 21.35 21.35 0 01.33-11.41 29.78 29.78 0 015.8-11.42A28 28 0 01183.1 18a26.08 26.08 0 0111.47-2.66q8.07 0 11.24 5.08l.37-1.39a4.31 4.31 0 013.89-3.03h6.08a2.28 2.28 0 012.24 3zm-23.65 26.5a15.88 15.88 0 005.33-8.5q1.43-5.32-.78-8.49t-6.82-3.17a13.37 13.37 0 00-8.6 3.17 15.87 15.87 0 00-5.32 8.49q-1.43 5.33.77 8.49t6.9 3.17a13.24 13.24 0 008.52-3.16zM322.46 19l-9.64 36a4.28 4.28 0 01-3.89 3.07h-5.52a2.28 2.28 0 01-2.25-3.07l.48-1.78A20.91 20.91 0 01287 58.69 18.09 18.09 0 01277 56a13.08 13.08 0 01-5.52-7.59 21.35 21.35 0 01.31-11.41 29.91 29.91 0 015.79-11.42 28.13 28.13 0 019.59-7.58 26 26 0 0111.47-2.66q8.06 0 11.24 5.08l.37-1.39a4.29 4.29 0 013.89-3.03h6.07a2.28 2.28 0 012.25 3zm-23.65 26.5a15.87 15.87 0 005.32-8.5q1.42-5.32-.77-8.49t-6.82-3.17a13.35 13.35 0 00-8.6 3.17 15.87 15.87 0 00-5.32 8.49q-1.42 5.33.77 8.49t6.9 3.17a13.24 13.24 0 008.52-3.16zM479.89 19l-9.64 36a4.27 4.27 0 01-3.88 3.07h-5.53a2.28 2.28 0 01-2.25-3.07l.48-1.78a20.9 20.9 0 01-14.61 5.48 18.12 18.12 0 01-10-2.66 13 13 0 01-5.51-7.59 21.24 21.24 0 01.27-11.45A29.78 29.78 0 01435 25.59a28 28 0 019.6-7.59 26.09 26.09 0 0111.48-2.66q8.06 0 11.23 5.08l.37-1.39a4.31 4.31 0 013.89-3.03h6.08a2.28 2.28 0 012.24 3zm-23.65 26.5a15.88 15.88 0 005.33-8.5q1.43-5.32-.78-8.49T454 25.35a13.32 13.32 0 00-8.59 3.17 15.88 15.88 0 00-5.36 8.48q-1.43 5.33.78 8.49t6.89 3.17a13.24 13.24 0 008.52-3.16zM166.28 19l-9.64 36a4.28 4.28 0 01-3.89 3.07h-5.45a2.27 2.27 0 01-2.24-3.07l.52-1.94a23.39 23.39 0 01-6.91 4.19 21.29 21.29 0 01-7.67 1.44q-8.3 0-11.86-4.78t-1.06-14.16L123.63 19a4.29 4.29 0 013.89-3h6.07a2.28 2.28 0 012.25 3l-5.07 19q-2.73 10.17 5.8 10.17a11.89 11.89 0 007.81-2.85 16.12 16.12 0 004.93-8.49L154.07 19a4.29 4.29 0 013.93-3h6a2.28 2.28 0 012.28 3zM263.53 18a13.25 13.25 0 015.52 7.59 21 21 0 01-.31 11.41A29.92 29.92 0 01263 48.4a28.67 28.67 0 01-9.64 7.6 25.72 25.72 0 01-11.4 2.7q-8.69 0-11.76-5.48l-.48 1.78a4.27 4.27 0 01-3.88 3.07h-5.53a2.28 2.28 0 01-2.25-3.07L232 3.07A4.27 4.27 0 01235.86 0h6.08a2.27 2.27 0 012.24 3.07l-4.65 17.35a21 21 0 0114-5.08 17.69 17.69 0 0110 2.66zm-12.45 27.5a15.94 15.94 0 005.29-8.5q1.42-5.32-.74-8.49t-6.85-3.17a13.18 13.18 0 00-8.56 3.17 15.94 15.94 0 00-5.29 8.49q-1.43 5.33.74 8.49t6.86 3.17a13.16 13.16 0 008.55-3.16zM369.72 20q3.55 4.7 1.08 13.93l-5.63 21a4.3 4.3 0 01-3.89 3.07h-6.08a2.27 2.27 0 01-2.2-3l5.13-19.15c.9-3.34.83-5.83-.18-7.47s-2.95-2.48-5.72-2.48a12.43 12.43 0 00-8.12 2.86 15.82 15.82 0 00-5 8.49L334.34 55a4.3 4.3 0 01-3.89 3.07h-6.08a2.27 2.27 0 01-2.24-3.07l9.64-36a4.29 4.29 0 013.88-3h5.53a2.28 2.28 0 012.25 3l-.5 1.86a23.22 23.22 0 017.12-4.11 24.26 24.26 0 018.29-1.44q7.83.03 11.38 4.69zM55.16 55.12a.53.53 0 01-.25.32.38.38 0 01-.26.06h-.12a14.5 14.5 0 00-2-.15 16.71 16.71 0 00-9.3 3.11c-.41.29-.89.26-1.08-.07L30.83 37.65l-9.41 7.66-2.81 10.47a1 1 0 01-1.24.71 10.9 10.9 0 00-5.07-1.17 15.23 15.23 0 00-5.4 1 .6.6 0 01-.85-.72L16.41 17H6.88a2.28 2.28 0 01-2.25-3.07l1.74-6.47a4.3 4.3 0 013.88-3.07h19.07a2.27 2.27 0 012.24 3.07L25.53 30l30-24.63a4 4 0 012.48-1h9.24c1.35 0 1.61 1.59.43 2.58L41.49 28.81l13.64 26a.34.34 0 01.03.31z"/></g></g></svg>