<svg xmlns="http://www.w3.org/2000/svg" viewBox="0 0 960 159.32"><defs><style>.cls-1{fill:#fff;}</style></defs><g id="Camada_2" data-name="Camada 2"><g id="Camada_1-2" data-name="Camada 1"><path class="cls-1" d="M851.06,31.92H838.92a8.6,8.6,0,0,0-7.77,6.13l-.75,2.79c-4.25-6.8-11.74-10.17-22.47-10.17A52.39,52.39,0,0,0,785,36a56.47,56.47,0,0,0-19.19,15.2A58.38,58.38,0,0,0,755,71.31c-.3.89-.57,1.78-.81,2.7-2.32,8.65-2.55,16.28-.66,22.84a26,26,0,0,0,11,15.2q8.21,5.3,20.1,5.31,17.2,0,29.24-11c-.52,2.15-1.05,4.26-1.66,6.41a47.5,47.5,0,0,1-4.61,11.59,38.73,38.73,0,0,1-2.31,3.37c-.79,1-1.6,2.08-2.47,3a11.55,11.55,0,0,1-1,1,3.49,3.49,0,0,1-.7.68,6.27,6.27,0,0,1-.88.8,14.3,14.3,0,0,1-1.89,1.44,8.72,8.72,0,0,1-1,.64c-4.77,2.91-10.83,4.35-18.24,4.35H124.59a2.14,2.14,0,0,0-1.85,1.31,37.76,37.76,0,0,1-12.94,15.62c-1.31.92-1.1,2.66.3,2.66H773.92v0c.6,0,1.24,0,1.89,0Q799,159.32,814,148q14.26-10.66,20.55-31.94c.28-.83.5-1.66.72-2.48l20.25-75.57C856.45,34.68,854.46,31.92,851.06,31.92ZM817,79.38A30.49,30.49,0,0,1,808.26,91a26.43,26.43,0,0,1-17,6.35c-6.25,0-10.87-2.12-13.81-6.35-2.78-4-3.39-9.41-1.77-16.06.06-.31.14-.61.22-.92a32,32,0,0,1,10.65-17,26.72,26.72,0,0,1,17.21-6.35c6.16,0,10.68,2.12,13.63,6.35s3.45,9.9,1.55,17A39,39,0,0,1,817,79.38Z"/><path class="cls-1" d="M18.55,120.18A24.32,24.32,0,0,0,2.16,132.76C-1,139-.53,144.91,2.35,148.84a12.8,12.8,0,0,0,10.68,5c9.41,0,19.06-7.63,21.57-17C37.42,126.3,30.08,118,18.55,120.18Z"/><path class="cls-1" d="M98.73,120.24A24.3,24.3,0,0,0,82.5,132.9c-3,6.19-2.61,12,.29,15.94,2.23,3.09,6,5,10.67,5,8.4,0,17-6.1,20.49-14.1a17.81,17.81,0,0,0,1-2.91C117.84,126.22,110.37,117.89,98.73,120.24Z"/><path class="cls-1" d="M110.25,109.69h0Z"/><path class="cls-1" d="M229.11,38.06,209.84,110a8.58,8.58,0,0,1-7.78,6.13H191c-3.39,0-5.4-2.74-4.49-6.13l1-3.57q-12,11-29.23,11-11.9,0-20.09-5.32a26,26,0,0,1-11-15.18Q124.29,87,127.77,74a59.75,59.75,0,0,1,11.6-22.85A56.27,56.27,0,0,1,158.54,36a52.34,52.34,0,0,1,22.94-5.32q16.13,0,22.47,10.18l.75-2.79a8.57,8.57,0,0,1,7.77-6.13h12.15C228,31.93,230,34.67,229.11,38.06ZM181.81,91a31.82,31.82,0,0,0,10.66-17q2.85-10.63-1.56-17T177.27,50.7A26.67,26.67,0,0,0,160.08,57a31.82,31.82,0,0,0-10.65,17Q146.58,84.67,151,91t13.8,6.34A26.42,26.42,0,0,0,181.81,91Z"/><path class="cls-1" d="M436.78,38.06,417.5,110a8.55,8.55,0,0,1-7.77,6.13H398.67c-3.38,0-5.39-2.74-4.48-6.13l.95-3.57q-12,11-29.22,11-11.9,0-20.1-5.32a26,26,0,0,1-11-15.18Q332,87,335.44,74A59.88,59.88,0,0,1,347,51.17,56.46,56.46,0,0,1,366.2,36a52.42,52.42,0,0,1,22.95-5.32q16.11,0,22.47,10.18l.75-2.79a8.55,8.55,0,0,1,7.77-6.13h12.15C435.68,31.93,437.69,34.67,436.78,38.06ZM389.48,91a31.75,31.75,0,0,0,10.65-17q2.85-10.63-1.55-17T384.94,50.7A26.67,26.67,0,0,0,367.75,57,31.82,31.82,0,0,0,357.1,74q-2.85,10.65,1.55,17t13.79,6.34A26.42,26.42,0,0,0,389.48,91Z"/><path class="cls-1" d="M644.91,38.06,625.64,110a8.57,8.57,0,0,1-7.77,6.13H606.81c-3.39,0-5.39-2.74-4.49-6.13l1-3.57q-12,11-29.23,11-11.89,0-20.09-5.32a25.92,25.92,0,0,1-11-15.18Q540.08,87,543.57,74a59.89,59.89,0,0,1,11.6-22.85A56.27,56.27,0,0,1,574.34,36a52.37,52.37,0,0,1,22.94-5.32q16.13,0,22.47,10.18l.75-2.79a8.57,8.57,0,0,1,7.77-6.13h12.16C643.81,31.93,645.82,34.67,644.91,38.06ZM597.62,91a31.75,31.75,0,0,0,10.65-17q2.85-10.63-1.56-17T593.08,50.7A26.71,26.71,0,0,0,575.88,57a31.82,31.82,0,0,0-10.65,17q-2.85,10.65,1.55,17t13.8,6.34A26.46,26.46,0,0,0,597.62,91Z"/><path class="cls-1" d="M959.78,38.06,940.51,110a8.58,8.58,0,0,1-7.78,6.13H921.68c-3.39,0-5.4-2.74-4.49-6.13l1-3.57q-12,11-29.23,11-11.89,0-20.09-5.32a26,26,0,0,1-11-15.18Q855,87,858.44,74A59.75,59.75,0,0,1,870,51.17,56.27,56.27,0,0,1,889.21,36a52.34,52.34,0,0,1,22.94-5.32q16.13,0,22.47,10.18l.75-2.79a8.57,8.57,0,0,1,7.77-6.13h12.15C958.68,31.93,960.69,34.67,959.78,38.06ZM912.48,91a31.82,31.82,0,0,0,10.66-17q2.85-10.63-1.56-17T907.94,50.7A26.67,26.67,0,0,0,890.75,57,31.82,31.82,0,0,0,880.1,74q-2.85,10.65,1.55,17t13.8,6.34A26.42,26.42,0,0,0,912.48,91Z"/><path class="cls-1" d="M332.55,38.06,313.28,110a8.57,8.57,0,0,1-7.77,6.13H294.6c-3.38,0-5.39-2.74-4.48-6.13l1-3.89a46.62,46.62,0,0,1-13.83,8.38A42.23,42.23,0,0,1,262,117.37q-16.59,0-23.73-9.54T236.16,79.5l11.1-41.44A8.58,8.58,0,0,1,255,31.93h12.15c3.38,0,5.39,2.74,4.49,6.13L261.54,75.9q-5.46,20.34,11.6,20.35a23.73,23.73,0,0,0,15.62-5.72q6.84-5.7,9.87-17l9.51-35.49a8.57,8.57,0,0,1,7.77-6.13h12.16C331.45,31.93,333.46,34.67,332.55,38.06Z"/><path class="cls-1" d="M527.06,36.07a26.44,26.44,0,0,1,11,15.18Q541,61,537.47,74a59.23,59.23,0,0,1-11.58,22.77A57.3,57.3,0,0,1,506.72,112a51.45,51.45,0,0,1-22.81,5.4q-17.37,0-23.51-11l-1,3.57a8.55,8.55,0,0,1-7.77,6.13H440.61c-3.38,0-5.39-2.74-4.48-6.13L464,6.13A8.55,8.55,0,0,1,471.73,0h12.15c3.39,0,5.4,2.74,4.49,6.13l-9.3,34.72a41.93,41.93,0,0,1,28.07-10.18Q518.89,30.67,527.06,36.07ZM502.17,91a31.93,31.93,0,0,0,10.57-17q2.85-10.63-1.47-17T497.55,50.7A26.36,26.36,0,0,0,480.44,57a32,32,0,0,0-10.58,17Q467,84.67,471.34,91t13.72,6.34A26.31,26.31,0,0,0,502.17,91Z"/><path class="cls-1" d="M739.45,40.06q7.11,9.39,2.16,27.86L730.33,110a8.55,8.55,0,0,1-7.77,6.13H710.41c-3.39,0-5.4-2.74-4.49-6.13l10.27-38.31q2.68-10-.38-15T704.46,51.8a25,25,0,0,0-16.25,5.71q-7,5.72-10,17L668.68,110a8.58,8.58,0,0,1-7.78,6.13H648.75c-3.39,0-5.4-2.74-4.49-6.13l19.28-71.93a8.55,8.55,0,0,1,7.77-6.13h11.06c3.38,0,5.39,2.74,4.48,6.13l-1,3.73a46.09,46.09,0,0,1,14.25-8.22,48.18,48.18,0,0,1,16.58-2.9Q732.34,30.67,739.45,40.06Z"/><path class="cls-1" d="M110.32,110.24a1,1,0,0,1-.5.64.71.71,0,0,1-.52.12l-.24,0a28.86,28.86,0,0,0-4-.31,33.28,33.28,0,0,0-18.59,6.23c-.83.58-1.8.52-2.17-.16L61.66,75.3,42.84,90.63l-5.61,20.93A2,2,0,0,1,34.74,113a21.82,21.82,0,0,0-10.14-2.33,30.25,30.25,0,0,0-10.8,2.09,1.19,1.19,0,0,1-1.69-1.44L32.82,34H13.75c-3.37,0-5.39-2.76-4.48-6.13l3.46-12.94a8.61,8.61,0,0,1,7.78-6.13H58.64c3.4,0,5.39,2.76,4.49,6.13l-12.07,45L111,10.68a8.07,8.07,0,0,1,5-1.9h18.49c2.69,0,3.22,3.19.85,5.15L83,57.61l27.28,52.08A.73.73,0,0,1,110.32,110.24Z"/></g></g></svg>