<svg xmlns="http://www.w3.org/2000/svg" width="30" height="30"><g data-name="Camada 1"><path data-name="Caminho 20" d="M14.025 24.3a.744.744 0 11-.741.744.744.744 0 01.741-.744m0-1.35a2.1 2.1 0 102.1 2.1 2.1 2.1 0 00-2.1-2.1z" fill="#6b635f"/><path data-name="Caminho 21" d="M22.074 24.3a.744.744 0 11-.741.744.744.744 0 01.741-.744m0-1.35a2.1 2.1 0 102.1 2.1 2.1 2.1 0 00-2.1-2.1z" fill="#6b635f"/><path data-name="Caminho 22" d="M28.161 8.607a1.821 1.821 0 00-1.5-.7h-18L8.1 5.927a4.159 4.159 0 00-3.633-3.05H2.238a.738.738 0 100 1.473h2.226a2.713 2.713 0 012.232 1.977l3.783 13.353a2.76 2.76 0 002.541 1.92h10.062a2.778 2.778 0 002.55-1.908l2.784-9.459a1.833 1.833 0 00-.255-1.626zM27 9.807l-2.784 9.468a1.308 1.308 0 01-1.134.849H13.02a1.281 1.281 0 01-1.119-.846l-2.805-9.9h17.58a.3.3 0 01.324.438z" fill="#6b635f"/><path data-name="Retângulo 16" fill="none" d="M0 0h30v30H0z"/></g></svg>