<svg id="icon-cart" xmlns="http://www.w3.org/2000/svg" width="30" height="30" viewBox="0 0 30 30">
  <g id="Camada_1" data-name="Camada 1">
    <path id="Caminho_20" data-name="Caminho 20" d="M41.85,77.85a.744.744,0,1,1-.741.744.744.744,0,0,1,.741-.744m0-1.35a2.1,2.1,0,1,0,2.1,2.1A2.1,2.1,0,0,0,41.85,76.5Z" transform="translate(-27.825 -53.55)" fill="#6b635f"/>
    <path id="Caminho_21" data-name="Caminho 21" d="M68.68,77.85a.744.744,0,1,1-.741.744.744.744,0,0,1,.741-.744m0-1.35a2.1,2.1,0,1,0,2.1,2.1A2.1,2.1,0,0,0,68.68,76.5Z" transform="translate(-46.606 -53.55)" fill="#6b635f"/>
    <path id="Caminho_22" data-name="Caminho 22" d="M31.551,15.316a1.821,1.821,0,0,0-1.5-.7h-18l-.561-1.98A4.159,4.159,0,0,0,7.857,9.586H5.628a.738.738,0,1,0,0,1.473H7.854a2.713,2.713,0,0,1,2.232,1.977l3.783,13.353a2.76,2.76,0,0,0,2.541,1.92H26.472a2.778,2.778,0,0,0,2.55-1.908l2.784-9.459A1.833,1.833,0,0,0,31.551,15.316Zm-1.161,1.2-2.784,9.468a1.308,1.308,0,0,1-1.134.849H16.41a1.281,1.281,0,0,1-1.119-.846l-2.805-9.9h17.58a.3.3,0,0,1,.324.438Z" transform="translate(-3.39 -6.709)" fill="#6b635f"/>
    <rect id="Retângulo_16" data-name="Retângulo 16" width="30" height="30" fill="none"/>
  </g>
</svg>
