<svg id="icon-credit-card" xmlns="http://www.w3.org/2000/svg" width="45" height="45" viewBox="0 0 45 45">
  <g id="Camada_1" data-name="Camada 1">
    <rect id="Retângulo_29" data-name="Retângulo 29" width="45" height="45" fill="none"/>
    <path id="Caminho_61" data-name="Caminho 61" d="M7.745,46.476A2.754,2.754,0,0,1,5,43.74V24.052a2.75,2.75,0,0,1,2.745-2.745H11.4V17.639a2.754,2.754,0,0,1,2.75-2.75H42.755a2.754,2.754,0,0,1,2.745,2.75V37.3a2.749,2.749,0,0,1-2.745,2.75H39.1V43.74a2.754,2.754,0,0,1-2.745,2.754ZM7.083,43.74a.648.648,0,0,0,.661.666H36.352a.648.648,0,0,0,.657-.666V33.471H7.083Zm35.672-5.756a.648.648,0,0,0,.661-.666V17.639a.648.648,0,0,0-.661-.661H14.149a.648.648,0,0,0-.666.661v3.654H36.352a2.763,2.763,0,0,1,1.535.472,3.285,3.285,0,0,1,.414.374,2.7,2.7,0,0,1,.738,1.35,2.561,2.561,0,0,1,.058.549v13.95Zm-5.747-6.592V29.34H7.083v2.052Zm0-4.14v-3.2a.634.634,0,0,0-.657-.657H7.745a.639.639,0,0,0-.661.657v3.2ZM10.256,41.764a1.044,1.044,0,1,1,0-2.088h3.186a1.044,1.044,0,1,1,0,2.088Zm-.022-3.2a1.044,1.044,0,0,1-.076-2.083H17.7a1.044,1.044,0,1,1,0,2.088Z" transform="translate(-2.75 -8.189)" fill="#ededed"/>
  </g>
</svg>
