<svg xmlns="http://www.w3.org/2000/svg" width="45" height="45"><g data-name="Camada 1"><path data-name="Retângulo 29" fill="none" d="M0 0h45v45H0z"/><path data-name="Caminho 61" d="M4.995 38.287a2.754 2.754 0 01-2.745-2.736V15.863a2.75 2.75 0 012.745-2.745H8.65V9.45A2.754 2.754 0 0111.4 6.7h28.605a2.754 2.754 0 012.745 2.75v19.661a2.749 2.749 0 01-2.745 2.75H36.35v3.69a2.754 2.754 0 01-2.745 2.754zm-.662-2.736a.648.648 0 00.661.666h28.608a.648.648 0 00.657-.666V25.282H4.333zm35.672-5.756a.648.648 0 00.661-.666V9.45a.648.648 0 00-.661-.661H11.399a.648.648 0 00-.666.661v3.654h22.869a2.763 2.763 0 011.535.472 3.285 3.285 0 01.414.374 2.7 2.7 0 01.738 1.35 2.561 2.561 0 01.058.549v13.95zm-5.747-6.592v-2.052H4.333v2.052zm0-4.14v-3.2a.634.634 0 00-.657-.657H4.995a.639.639 0 00-.661.657v3.2zM7.506 33.575a1.044 1.044 0 110-2.088h3.186a1.044 1.044 0 110 2.088zm-.022-3.2a1.044 1.044 0 01-.076-2.083h7.542a1.044 1.044 0 110 2.088z" fill="#ededed"/></g></svg>