<svg xmlns="http://www.w3.org/2000/svg" width="20" height="20"><g data-name="Camada 1"><path data-name="Retângulo 46" fill="none" d="M0 0h20v20H0z"/><path data-name="Caminho 67" d="M8.304 19a.8.8 0 01-.8-.8v-6.64H5.726a.8.8 0 01-.8-.8v-2.8a.8.8 0 01.8-.8h1.778v-1.5a4.71 4.71 0 011.244-3.378A4.5 4.5 0 0112.056 1h2.218a.8.8 0 01.8.8v2.614a.8.8 0 01-.8.8H12.78c-.458 0-.6.092-.656.148a1.112 1.112 0 00-.11.6v1.2h2.148a.814.814 0 01.4.1.8.8 0 01.412.7v2.8a.8.8 0 01-.8.8h-2.16V18.2a.8.8 0 01-.8.8zM5.83 10.656h2.066a.508.508 0 01.5.508V18.1h2.71v-6.936a.508.508 0 01.508-.508h2.452v-2.6h-2.448a.508.508 0 01-.508-.506v-1.6a1.74 1.74 0 01.336-1.19 1.753 1.753 0 011.334-.452h1.39v-2.4h-2.114a3.428 3.428 0 00-3.66 3.752v1.884a.508.508 0 01-.508.506H5.83z" fill="#fff"/></g></svg>