<svg id="icon-facebook" xmlns="http://www.w3.org/2000/svg" width="20" height="20" viewBox="0 0 20 20">
  <g id="Camada_1" data-name="Camada 1">
    <rect id="Retângulo_46" data-name="Retângulo 46" width="20" height="20" fill="none"/>
    <path id="Caminho_67" data-name="Caminho 67" d="M28.008,23a.8.8,0,0,1-.8-.8V15.56H25.43a.8.8,0,0,1-.8-.8v-2.8a.8.8,0,0,1,.8-.8h1.778V9.66a4.71,4.71,0,0,1,1.244-3.378A4.5,4.5,0,0,1,31.76,5h2.218a.8.8,0,0,1,.8.8V8.414a.8.8,0,0,1-.8.8H32.484c-.458,0-.6.092-.656.148a1.112,1.112,0,0,0-.11.6v1.2h2.148a.814.814,0,0,1,.4.1.8.8,0,0,1,.412.7v2.8a.8.8,0,0,1-.8.8h-2.16V22.2a.8.8,0,0,1-.8.8Zm-2.474-8.344H27.6a.508.508,0,0,1,.5.508V22.1h2.71V15.164a.508.508,0,0,1,.508-.508H33.77v-2.6H31.322a.508.508,0,0,1-.508-.506v-1.6a1.74,1.74,0,0,1,.336-1.19,1.753,1.753,0,0,1,1.334-.452h1.39v-2.4H31.76A3.428,3.428,0,0,0,28.1,9.66v1.884a.508.508,0,0,1-.508.506H25.534Z" transform="translate(-19.704 -4)" fill="#fff"/>
  </g>
</svg>
