<svg xmlns="http://www.w3.org/2000/svg" viewBox="0 0 100 100"><g data-name="Camada 2"><g data-name="Camada 1"><g data-name="Camada 2"><g data-name="Camada 1-2"><path fill="none" d="M0 0h100v100H0z"/><path d="M95 22.65C95 11.19 71.81 5 50 5S5 11.19 5 22.65a8.91 8.91 0 002.06 5.56l27.72 31.1a3.43 3.43 0 01.61 1.69v27.2c0 4.7 7.34 6.8 14.61 6.8s14.61-2.1 14.61-6.8V61a3.6 3.6 0 01.64-1.67L92.38 28.9l.62-.71a9 9 0 002-5.54zM59.69 88c-.61.56-3.8 2.09-9.69 2.09s-9.08-1.54-9.69-2.09V64.4A28.52 28.52 0 0050 65.92a28.52 28.52 0 009.69-1.52zm1.89-31.92a19.83 19.83 0 00-1.5 2.16l-.18.33c-.06.1-.14.27-.17.3C59 59.56 55.69 61 50 61s-9-1.44-9.72-2.12a2 2 0 01-.18-.32 2 2 0 00-.18-.32 19 19 0 00-1.5-2.17l-17.7-19.86c8.12 2.62 18.59 4.1 29.28 4.1s21.15-1.48 29.28-4.1zM50 35.39C25.17 35.39 9.92 28 9.92 22.65S25.17 9.92 50 9.92s40.08 7.42 40.08 12.73S74.83 35.39 50 35.39z" fill="#fff"/></g></g></g></g></svg>