<svg xmlns="http://www.w3.org/2000/svg" viewBox="0 0 100 100"><defs><style>.cls-1{fill:none;}.cls-2{fill:#fff;}</style></defs><g id="Camada_2" data-name="Camada 2"><g id="Camada_1-2" data-name="Camada 1"><g id="Camada_2-2" data-name="Camada 2"><g id="Camada_1-2-2" data-name="Camada 1-2"><rect class="cls-1" width="100" height="100"/><path class="cls-2" d="M95,22.65C95,11.19,71.81,5,50,5S5,11.19,5,22.65a8.91,8.91,0,0,0,2.06,5.56h0l27.72,31.1A3.43,3.43,0,0,1,35.39,61V88.2c0,4.7,7.34,6.8,14.61,6.8s14.61-2.1,14.61-6.8V61a3.6,3.6,0,0,1,.64-1.67L92.38,28.9l.62-.71h0A9,9,0,0,0,95,22.65ZM59.69,88c-.61.56-3.8,2.09-9.69,2.09S40.92,88.55,40.31,88V64.4A28.52,28.52,0,0,0,50,65.92a28.52,28.52,0,0,0,9.69-1.52Zm1.89-31.92a19.83,19.83,0,0,0-1.5,2.16l-.18.33c-.06.1-.14.27-.17.3C59,59.56,55.69,61,50,61s-9-1.44-9.72-2.12a2,2,0,0,1-.18-.32,2,2,0,0,0-.18-.32,19,19,0,0,0-1.5-2.17L20.72,36.21c8.12,2.62,18.59,4.1,29.28,4.1s21.15-1.48,29.28-4.1ZM50,35.39C25.17,35.39,9.92,28,9.92,22.65S25.17,9.92,50,9.92s40.08,7.42,40.08,12.73S74.83,35.39,50,35.39Z"/></g></g></g></g></svg>
