<svg xmlns="http://www.w3.org/2000/svg" width="25" height="25"><defs><clipPath id="a"><path transform="translate(165 584)" fill="#9b9b9b" d="M0 0h25v25H0z"/></clipPath></defs><g transform="translate(-165 -584)" clip-path="url(#a)"><path d="M184.1 593.485a1.2 1.2 0 00-.8-.33h-.288a1.027 1.027 0 00-1.012 1.027v3.118a1.028 1.028 0 001.025 1.028h2.862a1.03 1.03 0 001.028-1.028v-.53a1.2 1.2 0 00-.33-.8zm1.692 3.715h-2.677v-2.922h.19l2.472 2.472s.015.033.015.017z" fill="#9b9b9b"/><path d="M188.15 595.11l-3.2-3.2a2.25 2.25 0 00-1.448-.6h-2.222v-1.21a2.465 2.465 0 00-2.462-2.46h-10.105a2.465 2.465 0 00-2.463 2.46v11.445A1.75 1.75 0 00168 603.3h1.443a2.623 2.623 0 005.125 0h6.847a2.623 2.623 0 005.125 0h.46a1.75 1.75 0 001.75-1.75v-4.99a2.25 2.25 0 00-.6-1.45zm-20.778-5a1.34 1.34 0 011.34-1.338h10.106a1.34 1.34 0 011.34 1.338v8.227h-12.786zM172 604.25a1.5 1.5 0 111.5-1.5 1.5 1.5 0 01-1.5 1.5zm11.972 0a1.5 1.5 0 111.5-1.5 1.5 1.5 0 01-1.5 1.5zm3.65-2.693a.627.627 0 01-.622.615h-.46a2.623 2.623 0 00-5.125 0h-6.847a2.622 2.622 0 00-5.125 0H168a.627.627 0 01-.628-.627v-2.085h12.823a1.085 1.085 0 001.085-1.085v-5.945h2.22a1.17 1.17 0 01.657.273l3.2 3.2a1.185 1.185 0 01.272.658z" fill="#9b9b9b"/><path fill="none" d="M165 584h25v25h-25z"/></g></svg>