<svg xmlns="http://www.w3.org/2000/svg" width="25" height="25"><defs><clipPath id="a"><path transform="translate(165 659)" fill="#9b9b9b" d="M0 0h25v25H0z"/></clipPath></defs><g transform="translate(-165 -659)" clip-path="url(#a)"><path d="M177.5 672.115a5.932 5.932 0 10-5.932-5.932 5.932 5.932 0 005.932 5.932zm0-10.635a4.7 4.7 0 11-4.7 4.7 4.7 4.7 0 014.7-4.7zm0 12.357c-8.862 0-10.8 4.462-10.8 6.183a2.723 2.723 0 002.77 2.73h16.07a2.722 2.722 0 002.77-2.73c-.005-1.72-1.948-6.183-10.81-6.183zm8.035 7.683h-16.07a1.5 1.5 0 01-1.54-1.5c0-1.285 1.75-4.95 9.575-4.95s9.575 3.665 9.575 4.95a1.5 1.5 0 01-1.54 1.5z" fill="#9b9b9b"/><path fill="none" d="M165 659h25v25h-25z"/></g></svg>