<svg xmlns="http://www.w3.org/2000/svg" width="25" height="25"><defs><clipPath id="a"><path transform="translate(165 434)" fill="#25201b" d="M0 0h25v25H0z"/></clipPath></defs><g transform="translate(-165 -434)" clip-path="url(#a)"><path fill="none" d="M165 434h25v25h-25z"/><path d="M187.952 443.847L179 436.88a2.545 2.545 0 00-3 0l-8.953 6.967a2.25 2.25 0 00-.8 1.628v.948a1.325 1.325 0 001.325 1.327h1.628v6.708a2.152 2.152 0 002.15 2.15h3.31a.85.85 0 00.85-.85v-3.935a1.985 1.985 0 013.97 0v3.927a.85.85 0 00.85.85h3.31a2.152 2.152 0 002.15-2.15v-6.7h1.632a1.325 1.325 0 001.322-1.328v-.947a2.25 2.25 0 00-.792-1.628zm-.433 2.575a.1.1 0 01-.093.093h-2a.852.852 0 00-.85.852v7.09a.925.925 0 01-.923.922h-2.94v-3.556a3.215 3.215 0 10-6.43 0v3.557h-2.928a.925.925 0 01-.923-.923v-7.09a.853.853 0 00-.85-.852h-2a.1.1 0 01-.092-.092v-.948a1.053 1.053 0 01.322-.658l8.938-6.967a1.312 1.312 0 011.485 0l8.965 6.968a1.053 1.053 0 01.323.658z" fill="#25201b"/></g></svg>