<svg xmlns="http://www.w3.org/2000/svg" width="25" height="25"><defs><clipPath id="a"><path transform="translate(165 734)" fill="#9b9b9b" d="M0 0h25v25H0z"/></clipPath></defs><g transform="translate(-165 -734)" clip-path="url(#a)"><path fill="none" d="M165 734h25v25h-25z"/><path d="M177.5 735.25a11.25 11.25 0 1011.25 11.25 11.25 11.25 0 00-11.25-11.25zm0 21.27a10.02 10.02 0 1110.02-10.02 10.02 10.02 0 01-10.02 10.02z" fill="#9b9b9b"/><path d="M182.653 745.885h-8.526l3.4-3.4a.615.615 0 000-.87.63.63 0 00-.87 0l-4.282 4.285a.858.858 0 000 1.205l4.285 4.282a.615.615 0 10.87-.87l-3.4-3.4h8.525a.615.615 0 000-1.23z" fill="#9b9b9b"/></g></svg>