<svg xmlns="http://www.w3.org/2000/svg" width="25" height="25"><defs><clipPath id="a"><path transform="translate(165 509)" fill="#9b9b9b" d="M0 0h25v25H0z"/></clipPath></defs><g transform="translate(-165 -509)" clip-path="url(#a)"><path d="M176.688 529.25a.62.62 0 11-.618.62.62.62 0 01.618-.62m0-1.125a1.75 1.75 0 101.75 1.75 1.75 1.75 0 00-1.75-1.75zm6.712 1.125a.62.62 0 11-.618.62.62.62 0 01.618-.62m0-1.125a1.75 1.75 0 101.75 1.75 1.75 1.75 0 00-1.75-1.75zm5.068-11.952a1.518 1.518 0 00-1.25-.582h-15l-.468-1.651a3.466 3.466 0 00-3.027-2.54h-1.858a.615.615 0 100 1.227h1.855a2.261 2.261 0 011.86 1.646l3.153 11.127a2.3 2.3 0 002.117 1.6h8.385a2.315 2.315 0 002.125-1.59l2.32-7.882a1.527 1.527 0 00-.212-1.355zm-.968 1l-2.32 7.89a1.09 1.09 0 01-.945.708h-8.385a1.067 1.067 0 01-.932-.7l-2.338-8.256h14.65a.25.25 0 01.27.365z" fill="#9b9b9b"/><path fill="none" d="M165 509h25v25h-25z"/></g></svg>