<svg id="icon-instagram" xmlns="http://www.w3.org/2000/svg" width="20" height="20" viewBox="0 0 20 20">
  <g id="Camada_1" data-name="Camada 1">
    <rect id="Ret창ngulo_47" data-name="Ret창ngulo 47" width="20" height="20" fill="none"/>
    <rect id="Ret창ngulo_48" data-name="Ret창ngulo 48" width="20" height="20" fill="none"/>
    <path id="Caminho_68" data-name="Caminho 68" d="M14,23c-2.494,0-2.82,0-3.8-.056a6.632,6.632,0,0,1-2.164-.412,4.34,4.34,0,0,1-1.544-1A4.2,4.2,0,0,1,5.48,19.978,6.436,6.436,0,0,1,5.056,17.8C5.012,16.82,5,16.494,5,14s.012-2.8.06-3.8a6.56,6.56,0,0,1,.412-2.17,4.3,4.3,0,0,1,1-1.548A4.252,4.252,0,0,1,8.024,5.47,6.6,6.6,0,0,1,10.2,5.054C11.2,5.01,11.53,5,14,5s2.82,0,3.8.058a6.55,6.55,0,0,1,2.174.414,4.322,4.322,0,0,1,1.548,1,4.226,4.226,0,0,1,1.012,1.552A6.476,6.476,0,0,1,22.95,10.2c.044.988.048,1.306.048,3.8,0,2.468-.012,2.8-.054,3.8a6.674,6.674,0,0,1-.414,2.164,4.488,4.488,0,0,1-2.562,2.568,6.56,6.56,0,0,1-2.168.412C16.818,23,16.494,23,14,23ZM14,6.172c-2.424,0-2.752,0-3.75.052a5.412,5.412,0,0,0-1.8.338,3.01,3.01,0,0,0-1.15.75,3,3,0,0,0-.75,1.154,5.252,5.252,0,0,0-.336,1.8c-.044,1-.054,1.294-.054,3.75s.01,2.75.054,3.748a5.288,5.288,0,0,0,.336,1.8A3.142,3.142,0,0,0,7.3,20.716a3.188,3.188,0,0,0,1.154.748,5.354,5.354,0,0,0,1.8.332c1,.044,1.322.054,3.75.054s2.752,0,3.748-.054a5.274,5.274,0,0,0,1.8-.336,3.31,3.31,0,0,0,1.9-1.9,5.224,5.224,0,0,0,.336-1.8c.046-1,.054-1.3.054-3.744s0-2.752-.054-3.752a5.258,5.258,0,0,0-.336-1.8,3.072,3.072,0,0,0-.75-1.154A3.02,3.02,0,0,0,19.55,6.56a5.4,5.4,0,0,0-1.8-.336c-.986-.044-1.314-.052-3.74-.052Z" transform="translate(-4 -4)" fill="#fff"/>
    <path id="Caminho_69" data-name="Caminho 69" d="M32.024,36.516a4.5,4.5,0,1,1,4.5-4.5A4.5,4.5,0,0,1,32.024,36.516Zm0-7.836a3.338,3.338,0,1,0,3.342,3.336A3.338,3.338,0,0,0,32.024,28.68Z" transform="translate(-22.024 -22.016)" fill="#fff"/>
    <path id="Caminho_70" data-name="Caminho 70" d="M71.314,22.728a.854.854,0,1,1,.854-.852A.854.854,0,0,1,71.314,22.728Z" transform="translate(-56.368 -16.816)" fill="#fff"/>
  </g>
</svg>
