<svg xmlns="http://www.w3.org/2000/svg" width="20" height="20"><g data-name="Camada 1"><path data-name="Retângulo 47" fill="none" d="M0 0h20v20H0z"/><path data-name="Retângulo 48" fill="none" d="M0 0h20v20H0z"/><path data-name="Caminho 68" d="M10 19c-2.494 0-2.82 0-3.8-.056a6.632 6.632 0 01-2.164-.412 4.34 4.34 0 01-1.544-1 4.2 4.2 0 01-1.012-1.554 6.436 6.436 0 01-.424-2.178C1.012 12.82 1 12.494 1 10s.012-2.8.06-3.8a6.56 6.56 0 01.412-2.17 4.3 4.3 0 011-1.548A4.252 4.252 0 014.024 1.47 6.6 6.6 0 016.2 1.054C7.2 1.01 7.53 1 10 1s2.82 0 3.8.058a6.55 6.55 0 012.174.414 4.322 4.322 0 011.548 1 4.226 4.226 0 011.012 1.552A6.476 6.476 0 0118.95 6.2c.044.988.048 1.306.048 3.8 0 2.468-.012 2.8-.054 3.8a6.674 6.674 0 01-.414 2.164 4.488 4.488 0 01-2.562 2.568 6.56 6.56 0 01-2.168.412C12.818 19 12.494 19 10 19zm0-16.828c-2.424 0-2.752 0-3.75.052a5.412 5.412 0 00-1.8.338 3.01 3.01 0 00-1.15.75 3 3 0 00-.75 1.154 5.252 5.252 0 00-.336 1.8c-.044 1-.054 1.294-.054 3.75s.01 2.75.054 3.748a5.288 5.288 0 00.336 1.8 3.142 3.142 0 00.75 1.152 3.188 3.188 0 001.154.748 5.354 5.354 0 001.8.332c1 .044 1.322.054 3.75.054s2.752 0 3.748-.054a5.274 5.274 0 001.8-.336 3.31 3.31 0 001.9-1.9 5.224 5.224 0 00.336-1.8c.046-1 .054-1.3.054-3.744s0-2.752-.054-3.752a5.258 5.258 0 00-.336-1.8 3.072 3.072 0 00-.75-1.154 3.02 3.02 0 00-1.152-.75 5.4 5.4 0 00-1.8-.336c-.986-.044-1.314-.052-3.74-.052z" fill="#fff"/><path data-name="Caminho 69" d="M10 14.5a4.5 4.5 0 114.5-4.5 4.5 4.5 0 01-4.5 4.5zm0-7.836A3.338 3.338 0 1013.342 10 3.338 3.338 0 0010 6.664z" fill="#fff"/><path data-name="Caminho 70" d="M14.946 5.912a.854.854 0 11.854-.852.854.854 0 01-.854.852z" fill="#fff"/></g></svg>