<svg xmlns="http://www.w3.org/2000/svg" width="30" height="30"><g data-name="Camada 1"><path data-name="Caminho 17" d="M15 15.738a7.119 7.119 0 10-7.119-7.119A7.119 7.119 0 0015 15.738zm0-12.762a5.643 5.643 0 11-5.643 5.643A5.643 5.643 0 0115 2.976z" fill="#6b635f"/><path data-name="Caminho 18" d="M15 17.805c-10.635 0-12.966 5.355-12.966 7.419a3.267 3.267 0 003.32 3.276h19.288a3.267 3.267 0 003.324-3.276c0-2.064-2.331-7.419-12.966-7.419zm9.642 9.219H5.354a1.8 1.8 0 01-1.848-1.8c0-1.542 2.1-5.94 11.49-5.94s11.49 4.4 11.49 5.94a1.8 1.8 0 01-1.848 1.8z" fill="#6b635f"/><path data-name="Retângulo 14" fill="none" d="M0 0h30v30H0z"/></g></svg>