<svg id="icon-person" xmlns="http://www.w3.org/2000/svg" width="30" height="30" viewBox="0 0 30 30">
  <g id="Camada_1" data-name="Camada 1">
    <path id="Caminho_17" data-name="Caminho 17" d="M33.389,19.238a7.119,7.119,0,1,0-7.119-7.119A7.119,7.119,0,0,0,33.389,19.238Zm0-12.762a5.643,5.643,0,1,1-5.643,5.643,5.643,5.643,0,0,1,5.643-5.643Z" transform="translate(-18.389 -3.5)" fill="#6b635f"/>
    <path id="Caminho_18" data-name="Caminho 18" d="M19.746,59.35C9.111,59.35,6.78,64.705,6.78,66.769A3.267,3.267,0,0,0,10.1,70.045H29.388a3.267,3.267,0,0,0,3.324-3.276C32.712,64.705,30.381,59.35,19.746,59.35Zm9.642,9.219H10.1a1.8,1.8,0,0,1-1.848-1.8c0-1.542,2.1-5.94,11.49-5.94s11.49,4.4,11.49,5.94a1.8,1.8,0,0,1-1.848,1.8Z" transform="translate(-4.746 -41.545)" fill="#6b635f"/>
    <rect id="Retângulo_14" data-name="Retângulo 14" width="30" height="30" fill="none"/>
  </g>
</svg>
