<svg xmlns="http://www.w3.org/2000/svg" width="45" height="45"><g data-name="Camada 1"><path data-name="Retângulo 30" fill="none" d="M0 0h45v45H0z"/><path data-name="Caminho 62" d="M42.034 8.473a2.777 2.777 0 00-2.669-.666 16.544 16.544 0 01-8.429.094 13.194 13.194 0 01-6.3-4.018 2.781 2.781 0 00-4.306 0 13.18 13.18 0 01-6.543 4.09 16.771 16.771 0 01-8.167-.167 2.768 2.768 0 00-2.669.666 2.7 2.7 0 00-.7 1.985 42.172 42.172 0 004.148 17.785A29.025 29.025 0 0020.871 41.85a4.5 4.5 0 003.258 0 29.061 29.061 0 0014.593-13.842 42.814 42.814 0 004.05-17.55 2.7 2.7 0 00-.738-1.985zm-5.292 18.528a26.883 26.883 0 01-13.5 12.789 2.592 2.592 0 01-1.458 0A26.892 26.892 0 018.37 27.238a39.98 39.98 0 01-3.906-16.857.518.518 0 01.095-.369.423.423 0 01.288-.09 1.1 1.1 0 01.257.036 18.963 18.963 0 009.252.157 15.363 15.363 0 007.65-4.752.725.725 0 01.5-.283.733.733 0 01.508.283 15.39 15.39 0 007.331 4.671 18.912 18.912 0 009.558-.076 1.13 1.13 0 01.257-.036.45.45 0 01.292.09.522.522 0 01.09.369 40.044 40.044 0 01-3.8 16.62z" fill="#ededed"/><path data-name="Caminho 63" d="M31.122 15.12a1.1 1.1 0 00-1.552.189L19.8 27.796l-4.365-5.674a1.129 1.129 0 00-1.548-.2 1.08 1.08 0 00-.428.733 1.1 1.1 0 00.221.815l4.441 5.782a2.106 2.106 0 001.678.868 2.1 2.1 0 001.647-.837l9.878-12.6a1.1 1.1 0 00-.189-1.552z" fill="#ededed"/></g></svg>