<svg id="icon-safe" xmlns="http://www.w3.org/2000/svg" width="45" height="45" viewBox="0 0 45 45">
  <g id="Camada_1" data-name="Camada 1">
    <rect id="Retângulo_30" data-name="Retângulo 30" width="45" height="45" fill="none"/>
    <path id="Caminho_62" data-name="Caminho 62" d="M44.778,11.972a2.777,2.777,0,0,0-2.669-.666,16.544,16.544,0,0,1-8.429.094,13.194,13.194,0,0,1-6.3-4.018,2.781,2.781,0,0,0-4.306,0,13.18,13.18,0,0,1-6.543,4.09,16.771,16.771,0,0,1-8.167-.167,2.768,2.768,0,0,0-2.669.666,2.7,2.7,0,0,0-.7,1.985A42.172,42.172,0,0,0,9.143,31.741,29.025,29.025,0,0,0,23.615,45.349a4.5,4.5,0,0,0,3.258,0A29.061,29.061,0,0,0,41.466,31.507a42.814,42.814,0,0,0,4.05-17.55A2.7,2.7,0,0,0,44.778,11.972ZM39.486,30.5a26.883,26.883,0,0,1-13.5,12.789,2.592,2.592,0,0,1-1.458,0A26.892,26.892,0,0,1,11.114,30.737,39.98,39.98,0,0,1,7.208,13.88a.518.518,0,0,1,.095-.369.423.423,0,0,1,.288-.09,1.1,1.1,0,0,1,.257.036,18.963,18.963,0,0,0,9.252.157,15.363,15.363,0,0,0,7.65-4.752.725.725,0,0,1,.5-.283.733.733,0,0,1,.508.283,15.39,15.39,0,0,0,7.331,4.671,18.912,18.912,0,0,0,9.558-.076,1.13,1.13,0,0,1,.257-.036.45.45,0,0,1,.292.09.522.522,0,0,1,.09.369A40.044,40.044,0,0,1,39.486,30.5Z" transform="translate(-2.744 -3.499)" fill="#ededed"/>
    <path id="Caminho_63" data-name="Caminho 63" d="M47.561,33.309a1.1,1.1,0,0,0-1.552.189l-9.77,12.487-4.365-5.674a1.129,1.129,0,0,0-1.548-.2,1.08,1.08,0,0,0-.428.733,1.1,1.1,0,0,0,.221.815l4.441,5.782a2.106,2.106,0,0,0,1.678.868h0a2.1,2.1,0,0,0,1.647-.837l9.878-12.6a1.1,1.1,0,0,0-.189-1.552Z" transform="translate(-16.439 -18.189)" fill="#ededed"/>
  </g>
</svg>
