<svg id="icon-truck" xmlns="http://www.w3.org/2000/svg" width="45" height="45" viewBox="0 0 45 45">
  <g id="Camada_1" data-name="Camada 1">
    <path id="Caminho_23" data-name="Caminho 23" d="M71.78,37.214a2.151,2.151,0,0,0-1.431-.594h-.518A1.849,1.849,0,0,0,68,38.47v5.607a1.849,1.849,0,0,0,1.845,1.849H75a1.854,1.854,0,0,0,1.85-1.849v-.954a2.16,2.16,0,0,0-.594-1.435ZM74.826,43.9H70.007v-5.26h.342l4.451,4.45s.027.059.027.032Z" transform="translate(-37.4 -20.141)" fill="#ededed"/>
    <path id="Caminho_24" data-name="Caminho 24" d="M44.42,28.006l-5.764-5.764a4.05,4.05,0,0,0-2.605-1.08h-4V18.993a4.437,4.437,0,0,0-4.432-4.432H9.433A4.437,4.437,0,0,0,5,18.993v20.6a3.15,3.15,0,0,0,3.15,3.15h2.6a4.72,4.72,0,0,0,9.225,0H32.3a4.72,4.72,0,0,0,9.225,0h.828a3.15,3.15,0,0,0,3.15-3.15V30.616a4.05,4.05,0,0,0-1.08-2.61Zm-37.4-9A2.412,2.412,0,0,1,9.433,16.6H27.622a2.412,2.412,0,0,1,2.412,2.408V33.815H7.021Zm8.33,25.452a2.7,2.7,0,1,1,2.7-2.7A2.7,2.7,0,0,1,15.35,44.458Zm21.551,0a2.7,2.7,0,1,1,.009,0Zm6.57-4.847a1.13,1.13,0,0,1-1.12,1.107h-.828a4.721,4.721,0,0,0-9.225,0H19.972a4.721,4.721,0,0,0-9.225,0H8.15a1.129,1.129,0,0,1-1.13-1.129V35.836H30.1a1.953,1.953,0,0,0,1.953-1.953v-10.7h4a2.106,2.106,0,0,1,1.183.491L43,29.433a2.133,2.133,0,0,1,.491,1.184Z" transform="translate(-2.75 -8.008)" fill="#ededed"/>
    <rect id="Retângulo_17" data-name="Retângulo 17" width="45" height="45" fill="none"/>
  </g>
</svg>
