<svg xmlns="http://www.w3.org/2000/svg" width="45" height="45"><g data-name="Camada 1"><path data-name="Caminho 23" d="M34.38 17.073a2.151 2.151 0 00-1.431-.594h-.518a1.849 1.849 0 00-1.831 1.85v5.607a1.849 1.849 0 001.845 1.849H37.6a1.854 1.854 0 001.85-1.849v-.954a2.16 2.16 0 00-.594-1.435zm3.046 6.686h-4.819v-5.26h.342l4.451 4.45s.027.059.027.032z" fill="#ededed"/><path data-name="Caminho 24" d="M41.67 19.998l-5.764-5.764a4.05 4.05 0 00-2.605-1.08h-4v-2.169a4.437 4.437 0 00-4.432-4.432H6.683a4.437 4.437 0 00-4.433 4.432v20.6a3.15 3.15 0 003.15 3.15H8a4.72 4.72 0 009.225 0H29.55a4.72 4.72 0 009.225 0h.828a3.15 3.15 0 003.15-3.15v-8.977a4.05 4.05 0 00-1.08-2.61zm-37.4-9a2.412 2.412 0 012.413-2.406h18.189A2.412 2.412 0 0127.284 11v14.807H4.271zM12.6 36.45a2.7 2.7 0 112.7-2.7 2.7 2.7 0 01-2.7 2.7zm21.551 0a2.7 2.7 0 11.009 0zm6.57-4.847a1.13 1.13 0 01-1.12 1.107h-.828a4.721 4.721 0 00-9.225 0H17.222a4.721 4.721 0 00-9.225 0H5.4a1.129 1.129 0 01-1.13-1.129v-3.753h23.08a1.953 1.953 0 001.953-1.953v-10.7h4a2.106 2.106 0 011.183.491l5.764 5.759a2.133 2.133 0 01.491 1.184z" fill="#ededed"/><path data-name="Retângulo 17" fill="none" d="M0 0h45v45H0z"/></g></svg>