<svg id="icon-whatsapp" xmlns="http://www.w3.org/2000/svg" width="20" height="20" viewBox="0 0 20 20">
  <g id="Camada_1" data-name="Camada 1">
    <rect id="Retângulo_49" data-name="Retângulo 49" width="20" height="20" fill="none"/>
    <path id="Caminho_71" data-name="Caminho 71" d="M6.456,18.677l-.048-.084a8.95,8.95,0,1,1,3.478,3.4l-.08-.044-4.576,1.2ZM10.174,20.9a7.874,7.874,0,1,0-2.66-2.6l.128.2-.868,3.12,3.2-.836Zm6.4-2.6a2.628,2.628,0,0,1-.816-.126,11.954,11.954,0,0,1-1.288-.476,9.709,9.709,0,0,1-3.788-3.33,4.354,4.354,0,0,1-.936-2.3,2.322,2.322,0,0,1,.694-1.708.686.686,0,0,1,.492-.266c.148,0,.3,0,.424.01s.214,0,.318.25l.268.654c.2.478.4,1,.446,1.068a.2.2,0,0,1,.02.2,5.7,5.7,0,0,1-.546.742.572.572,0,0,0-.12.732,7.052,7.052,0,0,0,1.322,1.648A6.238,6.238,0,0,0,14.82,16.5a1.174,1.174,0,0,0,.5.16.544.544,0,0,0,.422-.2c.138-.16.588-.692.748-.926a.276.276,0,0,1,.148-.046.26.26,0,0,1,.094.018c.2.078,1.32.626,1.548.738a2.036,2.036,0,0,1,.346.184,2.37,2.37,0,0,1-.154.894,2.171,2.171,0,0,1-1.368.938,3.514,3.514,0,0,1-.538.04Z" transform="translate(-4.174 -4.147)" fill="#fff" fill-rule="evenodd"/>
  </g>
</svg>
