<svg xmlns="http://www.w3.org/2000/svg" width="20" height="20"><g data-name="Camada 1"><path data-name="Retângulo 49" fill="none" d="M0 0h20v20H0z"/><path data-name="Caminho 71" d="M2.282 14.53l-.048-.084a8.95 8.95 0 113.478 3.4l-.08-.044-4.576 1.2zM6 16.753a7.874 7.874 0 10-2.66-2.6l.128.2-.868 3.12 3.2-.836zm6.4-2.6a2.628 2.628 0 01-.816-.126 11.954 11.954 0 01-1.288-.476 9.709 9.709 0 01-3.788-3.33 4.354 4.354 0 01-.936-2.3 2.322 2.322 0 01.694-1.708.686.686 0 01.492-.266c.148 0 .3 0 .424.01s.214 0 .318.25l.268.654c.2.478.4 1 .446 1.068a.2.2 0 01.02.2 5.7 5.7 0 01-.546.742.572.572 0 00-.12.732 7.052 7.052 0 001.322 1.648 6.238 6.238 0 001.756 1.102 1.174 1.174 0 00.5.16.544.544 0 00.422-.2c.138-.16.588-.692.748-.926a.276.276 0 01.148-.046.26.26 0 01.094.018c.2.078 1.32.626 1.548.738a2.036 2.036 0 01.346.184 2.37 2.37 0 01-.154.894 2.171 2.171 0 01-1.368.938 3.514 3.514 0 01-.538.04z" fill="#fff" fill-rule="evenodd"/></g></svg>